<svg xmlns="http://www.w3.org/2000/svg" xmlns:xlink="http://www.w3.org/1999/xlink" fill="none" version="1.1" width="117.80645751953125" height="79.6129150390625" viewBox="0 0 117.80645751953125 79.6129150390625"><defs><linearGradient x1="0.5" y1="0" x2="0.5" y2="1" id="master_svg0_2275_74972"><stop offset="0%" stop-color="#0AA1EB" stop-opacity="1"/><stop offset="100%" stop-color="#1373FE" stop-opacity="1"/></linearGradient><linearGradient x1="0.5" y1="0" x2="0.5" y2="1" id="master_svg1_2275_75243"><stop offset="0%" stop-color="#FF9500" stop-opacity="1"/><stop offset="100%" stop-color="#E73E00" stop-opacity="1"/></linearGradient><filter id="master_svg2_2275_75279" filterUnits="objectBoundingBox" color-interpolation-filters="sRGB" x="-2.0394734474843506" y="-1.8355262812402446" width="5.078946894968701" height="5.0789472916449885"><feFlood flood-opacity="0" result="BackgroundImageFix"/><feColorMatrix in="SourceAlpha" type="matrix" values="0 0 0 0 0 0 0 0 0 0 0 0 0 0 0 0 0 0 127 0"/><feOffset dy="4" dx="0"/><feGaussianBlur stdDeviation="10"/><feColorMatrix type="matrix" values="0 0 0 0 0 0 0 0 0 0 0 0 0 0 0 0 0 0 0.11999999731779099 0"/><feBlend mode="normal" in2="BackgroundImageFix" result="effect1_dropShadow"/><feBlend mode="normal" in="SourceGraphic" in2="effect1_dropShadow" result="shape"/></filter></defs><g><g><g><g><g><path d="M23.80645751953125,41.34625751953125C23.80645751953125,43.70265751953125,25.71670751953125,45.61295751953125,28.07312751953125,45.61295751953125L45.34625751953125,45.61295751953125C47.70265751953125,45.61295751953125,49.61295751953125,43.70265751953125,49.61295751953125,41.34625751953125L49.61295751953125,24.07312751953125C49.61295751953125,21.71670751953125,47.70265751953125,19.80645751953125,45.34625751953125,19.80645751953125L24.33979051953125,19.80645751953125C24.04523851953125,19.80645751953125,23.80645751953125,20.04523851953125,23.80645751953125,20.33979051953125L23.80645751953125,41.34625751953125Z" fill="url(#master_svg0_2275_74972)" fill-opacity="1"/></g><g><path d="M30.000006198883057,47.539806198883056C30.000006198883057,49.89620619888306,31.910256198883058,51.806506198883056,34.266676198883054,51.806506198883056L55.273106198883056,51.806506198883056C55.56770619888306,51.806506198883056,55.806506198883056,51.56770619888306,55.806506198883056,51.273106198883056L55.806506198883056,30.266676198883058C55.806506198883056,27.910256198883058,53.89620619888306,26.000006198883057,51.539806198883056,26.000006198883057L34.266676198883054,26.000006198883057C31.910256198883058,26.000006198883057,30.000006198883057,27.910256198883058,30.000006198883057,30.266676198883058L30.000006198883057,47.539806198883056Z" fill="url(#master_svg1_2275_75243)" fill-opacity="1"/></g></g><g filter="url(#master_svg2_2275_75279)"><path d="M49.61290619888305,26.000006198883057L34.266676198883054,26.000006198883057C31.910256198883058,26.000006198883057,30.000006198883057,27.910256198883058,30.000006198883057,30.266676198883058L30.000006198883057,45.61290619888305L45.34620619888305,45.61290619888305C47.70270619888306,45.61290619888305,49.61290619888305,43.70270619888306,49.61290619888305,41.34620619888305L49.61290619888305,26.000006198883057Z" fill-rule="evenodd" fill="#FFFFFF" fill-opacity="1"/></g></g><g><path d="M33.93979072570801,32.23312187011719L33.93979072570801,31.273124870117186C33.93979072570801,30.978572870117187,34.17857172570801,30.739791870117188,34.47312372570801,30.739791870117188L45.13979072570801,30.739791870117188C45.434390725708006,30.739791870117188,45.67309072570801,30.978572870117187,45.67309072570801,31.273124870117186L45.67309072570801,32.23312187011719C45.67309072570801,32.527681870117185,45.434390725708006,32.76646187011719,45.13979072570801,32.76646187011719L34.47312372570801,32.76646187011719C34.17857172570801,32.76646187011719,33.93979072570801,32.527681870117185,33.93979072570801,32.23312187011719ZM33.93979072570801,36.286461870117186L33.93979072570801,35.326461870117186C33.93979072570801,35.03190187011719,34.17857172570801,34.79312187011719,34.47312372570801,34.79312187011719L45.13979072570801,34.79312187011719C45.434390725708006,34.79312187011719,45.67309072570801,35.03190187011719,45.67309072570801,35.326461870117186L45.67309072570801,36.286461870117186C45.67309072570801,36.58101187011719,45.434390725708006,36.819791870117186,45.13979072570801,36.819791870117186L34.47312372570801,36.819791870117186C34.17857172570801,36.819791870117186,33.93979072570801,36.58101187011719,33.93979072570801,36.286461870117186ZM33.93979072570801,40.33979187011719L33.93979072570801,39.37979187011719C33.93979072570801,39.08524187011719,34.17857172570801,38.84646187011719,34.47312372570801,38.84646187011719L45.13979072570801,38.84646187011719C45.434390725708006,38.84646187011719,45.67309072570801,39.08524187011719,45.67309072570801,39.37979187011719L45.67309072570801,40.33979187011719C45.67309072570801,40.63434187011719,45.434390725708006,40.873091870117186,45.13979072570801,40.873091870117186L34.47312372570801,40.873091870117186C34.17857172570801,40.873091870117186,33.93979072570801,40.63434187011719,33.93979072570801,40.33979187011719Z" fill="#444444" fill-opacity="1"/></g></g><g><path d="M79.81845751953125,26.47581751953125Q79.26025751953125,25.823307519531248,78.71665751953125,25.37841751953125Q78.17315751953124,24.93351751953125,77.14485751953126,24.39964851953125L77.14485751953126,24.19203251953125Q78.64325751953125,24.19203251953125,79.48055751953125,24.23652151953125Q80.31785751953124,24.28101051953125,81.21395751953125,24.54794751953125Q82.11005751953125,24.81488751953125,82.84455751953125,25.40807751953125Q83.02085751953125,26.23854751953125,83.02085751953125,26.74275751953125Q83.02085751953125,27.18764751953125,82.90325751953125,27.54356751953125Q82.81515751953125,27.86981751953125,82.43325751953125,28.062607519531248Q82.05125751953125,28.25539751953125,81.61055751953126,28.25539751953125Q81.02295751953125,28.25539751953125,80.81735751953124,27.92913751953125Q80.64105751953124,27.69186751953125,80.46475751953125,27.39526751953125Q80.11225751953125,26.80207751953125,79.81845751953125,26.47581751953125ZM66.12745751953125,40.80135751953125Q66.12745751953125,39.76335751953125,66.00993751953125,37.74645751953125L64.59971051953124,38.07275751953125L64.01211551953125,38.22105751953125Q63.98273651953125,38.19135751953125,63.92397651953125,38.13205751953125Q63.86521701953125,38.07275751953125,63.80645751953125,37.98375751953125Q64.65847051953125,37.50915751953125,65.98055751953125,37.03465751953125Q65.83365751953124,34.98815751953125,65.68675751953126,34.54325751953125Q65.51048751953125,33.92035751953125,65.34889751953125,33.60894751953125Q65.18730751953125,33.29752751953125,64.95226751953125,33.11956751953125L64.48219151953126,33.35684751953125L64.07087551953126,32.941607519531246Q65.80427751953125,31.369657519531252,66.71505751953126,30.04979751953125Q67.62582751953126,28.72994751953125,68.50721751953125,27.09866751953125Q68.62473751953125,26.80207751953125,68.62473751953125,26.65377751953125Q68.62473751953125,25.85296751953125,66.95008751953125,24.87420751953125L67.06760751953125,24.69624451953125Q68.59535751953125,24.87420751953125,70.03496751953125,25.36358751953125Q71.47457751953125,25.85296751953125,72.03278751953125,26.20888751953125Q72.17968751953126,26.29785751953125,72.17968751953126,26.47581751953125Q72.17968751953126,26.74275751953125,71.91526751953126,27.06900751953125Q70.97511751953125,28.07743751953125,70.53441751953125,28.611307519531252L71.00449751953126,28.49266751953125Q71.50395751953126,28.40369751953125,71.69491751953124,28.31471751953125Q71.88588751953125,28.22573751953125,72.15030751953125,28.018117519531252Q72.44410751953126,27.75118751953125,72.59100751953125,27.60288751953125Q72.76727751953125,27.36560751953125,72.85542751953125,27.36560751953125Q72.97293751953126,27.36560751953125,73.17859751953125,27.54356751953125Q73.67805751953125,27.89947751953125,74.53005751953125,28.70028751953125Q75.32335751953124,29.41211751953125,75.32335751953124,29.41211751953125Q75.44085751953125,29.50109751953125,75.44085751953125,29.64939751953125Q75.44085751953125,29.91633751953125,75.17645751953125,30.09428751953125Q74.73575751953125,30.27224751953125,73.79557751953125,30.83577751953125L71.41581751953125,32.40773751953125L70.47566751953124,33.03058751953125Q72.15030751953125,32.64501751953125,72.70852751953124,32.318757519531246Q72.85542751953125,32.11113751953125,73.09045751953126,31.99250751953125Q73.32549751953125,31.873867519531252,73.58991751953126,31.903527519531252L74.79445751953125,32.229777519531254Q75.79335751953126,32.43739751953125,76.26345751953124,32.61535751953125Q76.41035751953125,32.70433751953125,76.41035751953125,32.882287519531246Q76.41035751953125,33.14922751953125,76.26345751953124,33.29752751953125Q75.99905751953125,33.62377751953125,75.61715751953125,34.48395751953125Q75.49955751953125,34.81015751953125,75.08825751953125,36.44145751953125L74.67695751953124,38.10235751953125Q74.76505751953125,38.10235751953125,74.91195751953126,38.25065751953125Q75.08825751953125,38.42865751953125,75.27925751953126,38.78455751953125Q75.47025751953124,39.14045751953125,75.55835751953126,39.46675751953125Q75.61715751953125,39.70395751953125,75.41145751953125,40.01545751953125Q75.20575751953125,40.326857519531245,74.97075751953125,40.26755751953125Q74.38315751953125,40.14885751953125,73.64867751953125,40.14885751953125Q73.20797751953125,40.14885751953125,71.85650751953125,40.26755751953125L70.85759751953125,40.35655751953125Q69.03605751953125,40.59375751953125,68.09589751953125,40.83105751953125Q68.12527751953125,41.03865751953125,68.12527751953125,41.364957519531245Q68.12527751953125,41.57255751953125,68.02245751953124,41.66155751953125Q67.91962751953125,41.75055751953125,67.71396751953125,41.66155751953125Q66.77381751953125,41.42425751953125,66.50939751953125,41.246257519531255Q66.36249751953125,41.157357519531246,66.24497751953125,41.03865751953125Q66.12745751953125,40.920057519531255,66.12745751953125,40.80135751953125ZM76.67475751953125,30.98407751953125Q76.55725751953125,30.83577751953125,76.19005751953125,30.34639751953125Q75.82275751953125,29.85701751953125,75.45555751953125,29.47143751953125Q75.08825751953125,29.08586751953125,74.67695751953124,28.72994751953125L74.88265751953125,28.52232751953125Q75.47025751953124,28.72994751953125,76.85105751953125,28.96722751953125Q77.67365751953125,28.90790751953125,80.14155751953125,28.52232751953125L81.96315751953125,28.22573751953125Q84.19605751953125,27.89947751953125,86.25255751953125,27.21730751953125L86.98705751953125,26.98003751953125Q87.16335751953125,26.92071751953125,87.42775751953126,26.92071751953125Q87.89785751953124,26.92071751953125,88.30915751953125,27.27662751953125Q88.66175751953125,27.57322751953125,89.39625751953125,28.99688751953125Q89.45495751953125,29.174847519531248,89.45495751953125,29.26381751953125Q89.45495751953125,29.56041751953125,89.16115751953126,29.75320751953125Q88.86735751953125,29.94598751953125,88.54425751953124,29.88667751953125Q87.86845751953125,29.738377519531248,86.89895751953125,29.738377519531248Q86.19385751953125,29.738377519531248,85.18025751953125,29.84218751953125Q84.16665751953124,29.94598751953125,83.81405751953125,29.97564751953125L82.31565751953124,30.15360751953125Q80.61165751953125,30.36122751953125,78.58445751953126,31.01373751953125L77.93815751953125,31.19169751953125Q77.40925751953125,31.25101751953125,77.26235751953125,31.25101751953125Q76.85105751953125,31.25101751953125,76.67475751953125,30.98407751953125ZM65.39296751953125,32.91194751953125Q65.62799751953125,32.941607519531246,66.15683751953125,32.98609751953125Q66.68567751953125,33.03058751953125,67.09698751953125,33.11956751953125Q67.39078751953124,33.14922751953125,67.47892751953125,33.25303751953125Q67.56706751953125,33.35684751953125,67.62582751953126,33.62377751953125Q67.94900751953125,33.53479751953125,68.65411751953125,33.41616751953125L71.70960751953125,29.53075751953125L69.09481751953125,30.12394751953125Q67.39078751953124,31.844207519531253,65.39296751953125,32.91194751953125ZM83.28525751953126,42.13605751953125L83.31465751953125,43.17415751953125Q83.34395751953124,44.33085751953125,83.24115751953124,44.968557519531245Q83.13835751953125,45.606257519531255,82.84455751953125,46.19945751953125Q82.16875751953125,47.59345751953125,81.19925751953124,47.59345751953125Q80.90545751953125,47.59345751953125,80.61165751953125,47.40065751953125Q80.31785751953124,47.207857519531245,80.11225751953125,46.76295751953125Q80.02405751953125,46.58505751953125,79.86245751953125,46.125257519531246Q79.70085751953125,45.66555751953125,79.43645751953125,45.25035751953125Q78.84885751953125,44.41985751953125,77.76185751953125,44.03425751953125L77.82055751953125,43.70805751953125Q79.11335751953125,43.885957519531246,79.70085751953125,43.885957519531246Q80.37665751953125,43.885957519531246,80.40605751953125,43.32245751953125Q80.46475751953125,42.66995751953125,80.46475751953125,41.335257519531254Q80.46475751953125,39.76335751953125,80.37665751953125,38.30995751953125Q79.78905751953126,38.42865751953125,79.75965751953125,38.45825751953125L79.75965751953125,38.81425751953125Q79.75965751953125,39.34805751953125,79.23085751953126,39.22945751953125Q78.55505751953125,39.11075751953125,77.87935751953125,38.81425751953125Q77.37985751953124,38.60655751953125,77.37985751953124,38.28035751953125Q77.37985751953124,36.97535751953125,77.24765751953124,35.655457519531254Q77.11545751953125,34.33565751953125,76.96855751953125,33.86105751953125Q76.64545751953125,33.03058751953125,76.33695751953125,32.63018751953125Q76.02845751953124,32.229777519531254,75.61715751953125,32.05182751953125L75.67585751953125,31.72556751953125Q75.91095751953125,31.75522751953125,76.80695751953125,31.873867519531252Q77.70305751953126,31.99250751953125,78.26125751953126,32.170457519531254Q78.34945751953126,32.20011751953125,78.61385751953125,32.25943751953125Q78.87825751953125,32.318757519531246,79.05455751953124,32.49671751953125Q83.40275751953125,31.72556751953125,83.90225751953125,31.28067751953125Q84.31355751953126,30.98407751953125,84.51915751953125,30.895097519531248Q84.72485751953124,30.80611751953125,85.07735751953125,30.86543751953125Q86.78145751953124,31.31032751953125,87.80975751953125,31.873867519531252Q88.01535751953125,31.99250751953125,88.01535751953125,32.20011751953125Q88.01535751953125,32.40773751953125,87.86845751953125,32.49671751953125Q87.57465751953126,32.82297751953125,87.01645751953126,33.83135751953125Q86.63455751953126,34.48395751953125,86.13505751953124,35.84825751953125L86.19385751953125,35.90755751953125Q86.63455751953126,36.35245751953125,86.98705751953125,37.30155751953125L87.01645751953126,37.42025751953125Q87.01645751953126,37.62785751953125,86.82545751953126,37.74645751953125Q86.63455751953126,37.86505751953125,86.34075751953125,37.86505751953125Q85.22425751953125,37.86505751953125,83.16775751953125,38.01335751953125L83.28525751953126,42.13605751953125ZM79.49525751953125,33.97965751953125Q79.67155751953125,35.25505751953125,79.73025751953125,36.797357519531246Q80.93485751953125,36.56005751953125,83.34395751953124,36.20415751953125Q83.54965751953125,35.19575751953125,83.69655751953125,34.32075751953125Q83.84345751953126,33.44582751953125,83.87285751953125,33.14922751953125L79.49525751953125,33.97965751953125ZM71.06325751953125,34.246657519531254Q71.00449751953126,34.95845751953125,71.00449751953126,35.610957519531254Q71.82712751953125,35.492357519531254,72.79666751953125,35.52195751953125L73.03169751953125,33.86105751953125L71.06325751953125,34.246657519531254ZM67.71396751953125,34.95845751953125Q67.77272751953124,35.99655751953125,67.83148751953125,36.41175751953125Q67.71396751953125,36.44145751953125,69.15357751953125,36.02625751953125Q69.12419751953125,35.72965751953125,69.12419751953125,35.04745751953125Q69.12419751953125,34.81015751953125,69.03605751953125,34.63225751953125L67.71396751953125,34.95845751953125ZM72.56162751953124,37.24225751953125Q72.35596751953125,37.15325751953125,72.06216751953124,37.15325751953125L71.03387751953125,37.18295751953125L71.06325751953125,38.01335751953125Q71.06325751953125,38.63625751953125,71.09263751953125,38.84385751953125Q71.62146751953125,38.78455751953125,72.38534751953125,38.60655751953125L72.56162751953124,37.24225751953125ZM68.03714751953125,39.407357519531246Q69.21233751953125,39.199757519531246,69.15357751953125,39.199757519531246Q69.18295751953124,38.60655751953125,69.18295751953124,37.27195751953125L67.89024751953124,37.42025751953125L68.03714751953125,39.407357519531246ZM88.80865751953125,41.42425751953125Q89.48435751953124,42.19535751953125,89.48435751953124,43.26315751953125Q89.48435751953124,43.559757519531246,89.42565751953126,44.03425751953125Q89.30805751953125,44.53855751953125,88.91145751953125,44.84995751953125Q88.51485751953125,45.16135751953125,88.07415751953125,45.16135751953125Q87.72155751953125,45.16135751953125,87.54525751953125,45.01305751953125Q86.86955751953124,44.568157519531255,86.28195751953125,43.05555751953125Q85.92945751953125,42.13605751953125,85.09205751953125,41.127657519531255Q84.25475751953125,40.119257519531246,83.54965751953125,39.76335751953125L83.72595751953125,39.17015751953125Q85.25365751953125,39.31845751953125,86.67855751953125,39.98575751953125Q88.10355751953125,40.653057519531245,88.80865751953125,41.42425751953125ZM78.08505751953125,41.51325751953125Q78.11435751953125,41.66155751953125,78.11435751953125,41.958157519531255Q78.11435751953125,42.521657519531246,77.70305751953126,43.67835751953125Q77.40925751953125,44.50885751953125,76.80695751953125,45.01305751953125Q76.20475751953126,45.51725751953125,75.35265751953125,45.51725751953125Q75.02955751953125,45.51725751953125,74.79445751953125,45.26515751953125Q74.55945751953125,45.01305751953125,74.53005751953125,44.53855751953125Q74.50065751953125,44.03425751953125,74.55945751953125,43.737657519531254Q74.61825751953126,43.44105751953125,74.85325751953125,43.08515751953125Q75.11765751953125,42.66995751953125,75.47025751953124,42.284357519531255Q75.79335751953126,41.86915751953125,76.07245751953126,41.45395751953125Q76.35165751953124,41.03865751953125,76.38095751953125,40.83105751953125Q76.43975751953126,40.59375751953125,76.43975751953126,40.326857519531245Q76.43975751953126,39.94125751953125,76.26345751953124,39.58535751953125L76.41035751953125,39.407357519531246Q77.29175751953125,39.911657519531246,77.79125751953126,40.56415751953125Q77.99685751953125,40.86075751953125,78.02625751953124,41.127657519531255Q78.05565751953125,41.39455751953125,78.08505751953125,41.51325751953125ZM75.64645751953125,41.246257519531255L74.88265751953125,41.75055751953125Q72.91418751953125,42.996257519531255,72.03278751953125,43.50045751953125L71.35705751953125,43.885957519531246Q69.91744751953125,44.775757519531254,67.62582751953126,45.93255751953125Q66.83256751953125,46.31805751953125,66.50939751953125,46.58505751953125Q66.39187751953125,46.67395751953125,66.24497751953125,46.67395751953125Q66.03931751953125,46.67395751953125,65.86303751953125,46.52565751953125Q65.68675751953126,46.37735751953125,65.65737751953125,46.169757519531245Q65.53986751953126,45.635957519531246,64.95226751953125,44.47915751953125Q64.36467251953125,43.32245751953125,64.04149551953125,42.90725751953125L64.18839451953124,42.61065751953125Q64.71722951953124,42.93685751953125,65.15792751953126,43.10005751953125Q65.59862751953125,43.26315751953125,66.30373751953125,43.23345751953125Q67.68458751953125,43.05555751953125,71.35705751953125,42.10645751953125Q72.85542751953125,41.75055751953125,75.55835751953126,40.80135751953125L75.64645751953125,41.246257519531255ZM117.71825751953125,35.31435751953125Q117.80645751953125,35.34405751953125,117.80645751953125,35.492357519531254Q117.80645751953125,35.78895751953125,117.63015751953125,35.966857519531246Q117.57145751953125,36.02625751953125,117.36575751953126,36.20415751953125Q117.16005751953125,36.38215751953125,116.98385751953126,36.94565751953125L116.77815751953125,37.65745751953125Q116.42555751953125,39.05145751953125,115.42665751953125,42.165757519531255Q115.13285751953126,42.996257519531255,114.88315751953125,43.45595751953125Q114.63345751953125,43.91565751953125,114.28085751953125,44.27155751953125Q113.78145751953124,44.74615751953125,113.29665751953125,45.04275751953125Q112.81185751953126,45.33935751953125,112.13615751953125,45.33935751953125Q111.90115751953125,45.33935751953125,111.71015751953125,45.07235751953125Q111.51915751953125,44.805457519531245,111.22535751953126,44.21225751953125L110.87285751953125,43.530057519531255Q110.46155751953125,42.78855751953125,109.78575751953124,42.07675751953125Q109.11005751953125,41.364957519531245,108.34615751953126,41.03865751953125L108.40495751953125,40.59375751953125L111.84235751953125,41.335257519531254Q112.40055751953125,40.20825751953125,112.78255751953125,38.932857519531254Q113.16445751953125,37.65745751953125,113.31135751953124,36.56005751953125Q111.98925751953125,36.678757519531246,111.60735751953125,36.70835751953125Q107.52355751953125,37.12365751953125,106.26025751953125,37.27195751953125Q106.26025751953125,46.49605751953125,106.37775751953126,47.26715751953125L106.37775751953126,47.35615751953125Q106.37775751953126,47.56375751953125,106.27485751953125,47.69725751953125Q106.17205751953125,47.83075751953125,105.99575751953125,47.80105751953125Q105.81955751953126,47.77135751953125,105.09975751953125,47.48965751953125Q104.37985751953124,47.207857519531245,103.70415751953125,46.91125751953125Q102.61715751953125,46.40705751953125,102.61715751953125,45.45795751953125Q102.61715751953125,45.22065751953125,102.67585751953125,44.924057519531246Q102.96965751953125,43.23345751953125,103.05785751953124,37.62785751953125Q99.50285751953125,38.07275751953125,97.29935751953124,39.02185751953125Q97.12305751953124,39.081157519531246,97.03495751953125,39.081157519531246Q96.82935751953124,39.081157519531246,96.69705751953126,38.873557519531246Q96.56485751953124,38.66595751953125,96.50615751953126,38.60655751953125L96.09485751953125,38.043057519531246Q95.80105751953124,37.59815751953125,95.46315751953125,37.13845751953125Q95.12525751953125,36.678757519531246,94.77275751953125,36.44145751953125L95.00775751953125,36.05585751953125Q95.18405751953125,36.08555751953125,95.74225751953125,36.21895751953125Q96.30045751953125,36.35245751953125,96.91745751953124,36.35245751953125Q97.35815751953125,36.35245751953125,97.62255751953126,36.32275751953125Q97.85755751953124,36.29315751953125,98.18075751953126,36.26345751953125Q98.50395751953124,36.23385751953125,98.94465751953125,36.20415751953125Q99.59095751953126,36.14485751953125,100.60455751953126,36.04105751953125Q101.61815751953125,35.93725751953125,103.11655751953126,35.759257519531246L103.11655751953126,33.08990751953125L103.11655751953126,31.873867519531252Q100.56055751953124,32.34841751953125,99.62035751953124,32.67467751953125L99.53225751953124,32.70433751953125Q99.35595751953124,32.70433751953125,99.20905751953126,32.49671751953125Q97.97515751953125,30.83577751953125,97.35815751953125,30.301907519531248L97.50505751953125,30.03496751953125Q98.85655751953125,30.42054751953125,99.35595751953124,30.39088751953125Q101.17755751953125,30.18326751953125,103.11655751953126,29.88667751953125Q103.08715751953125,27.54356751953125,102.91095751953125,26.32751751953125Q102.79335751953124,25.64534751953125,102.23515751953124,25.27460751953125Q101.67695751953124,24.90385751953125,100.14925751953125,24.39964851953125L100.35485751953125,23.80645751953125Q105.46695751953125,24.19203251953125,106.55395751953125,24.57760651953125Q106.81845751953125,24.66658551953125,106.81845751953125,24.93351751953125Q106.81845751953125,25.08181751953125,106.71555751953125,25.51188751953125Q106.61275751953124,25.94194751953125,106.58335751953125,26.20888751953125Q106.55395751953125,26.41649751953125,106.52465751953125,26.71309751953125Q106.49525751953125,27.00969751953125,106.46585751953126,27.48424751953125Q106.34835751953125,29.738377519531248,106.34835751953125,29.38245751953125Q108.75745751953124,28.90790751953125,108.93375751953124,28.78926751953125Q109.31565751953124,28.25539751953125,110.10895751953126,28.37403751953125Q110.99035751953124,28.52232751953125,112.04805751953126,28.83375751953125Q113.10565751953125,29.145187519531248,113.51705751953125,29.47143751953125Q113.66395751953125,29.56041751953125,113.66395751953125,29.738377519531248Q113.66395751953125,30.00530751953125,113.48765751953124,30.18326751953125Q113.22325751953124,30.47986751953125,113.04695751953125,30.77645751953125Q112.87065751953125,31.07305751953125,112.75315751953124,31.57726751953125Q112.69435751953125,31.78488751953125,112.42995751953126,32.67467751953125L111.95985751953125,34.36525751953125L111.95985751953125,34.42455751953125Q112.40055751953125,34.33565751953125,112.63565751953125,34.18735751953125Q112.69435751953125,34.12795751953125,112.88535751953125,34.00935751953125Q113.07635751953126,33.89075751953125,113.23785751953125,33.84625751953125Q113.39945751953125,33.80173751953125,113.60515751953125,33.83135751953125Q114.13395751953125,33.89075751953125,115.64705751953124,34.454257519531254Q117.16005751953125,35.01775751953125,117.71825751953125,35.31435751953125ZM113.13505751953124,27.27662751953125Q112.31245751953125,26.09024751953125,110.22645751953125,25.05215751953125L110.37335751953125,24.72590451953125Q113.39945751953125,24.60726651953125,115.95555751953125,25.70466751953125Q116.39625751953125,26.74275751953125,116.39625751953125,27.78083751953125Q116.39625751953125,28.28505751953125,116.36685751953125,28.52232751953125Q116.30805751953125,29.145187519531248,116.04365751953125,29.50109751953125Q115.77925751953126,29.85701751953125,115.42665751953125,29.85701751953125Q115.07415751953124,29.85701751953125,114.78035751953125,29.56041751953125Q114.45715751953125,29.23415751953125,113.54635751953126,27.89947751953125Q113.42885751953125,27.69186751953125,113.13505751953124,27.27662751953125ZM106.28955751953126,31.369657519531252Q106.28955751953126,33.77207751953125,106.26025751953125,35.34405751953125Q107.34725751953124,35.22535751953125,108.66935751953125,35.01775751953125Q109.13945751953125,33.11956751953125,109.40385751953124,30.895097519531248L106.28955751953126,31.369657519531252Z" fill="#303030" fill-opacity="1"/></g></g></svg>